<svg xmlns="http://www.w3.org/2000/svg" viewBox="0 0 345 345"><g id="Layer_2" data-name="Layer 2"><g id="Layer_1-2" data-name="Layer 1"><path d="M172.5,7.5c-91,0-165,74-165,165s74,165,165,165a15,15,0,0,0,0-30c-74.44,0-135-60.56-135-135s60.56-135,135-135,135,60.56,135,135V210a22.5,22.5,0,0,1-45,0V172.5a90.13,90.13,0,1,0-24.24,61.37A52.49,52.49,0,0,0,337.5,210V172.5C337.5,81.52,263.48,7.5,172.5,7.5Zm0,225a60,60,0,1,1,60-60A60,60,0,0,1,172.5,232.5Z"/><path d="M172.5,0C77.38,0,0,77.38,0,172.5S77.38,345,172.5,345a22.5,22.5,0,0,0,0-45A127.5,127.5,0,1,1,300,172.5V210a15,15,0,0,1-30,0V172.5a97.46,97.46,0,1,0-33.19,73.22A60,60,0,0,0,345,210V172.5C345,77.38,267.62,0,172.5,0ZM330,210a45,45,0,0,1-85.06,20.45l-4.87-9.5-7.29,7.8A82.63,82.63,0,1,1,255,172.5V210a30,30,0,0,0,60,0V172.5C315,93.92,251.08,30,172.5,30A142.64,142.64,0,0,0,30,172.5C30,251.07,93.92,315,172.5,315a7.5,7.5,0,0,1,0,15C85.65,330,15,259.35,15,172.5S85.65,15,172.5,15,330,85.65,330,172.5Z"/><path d="M172.5,105A67.47,67.47,0,1,0,240,172.5,67.5,67.5,0,0,0,172.5,105Zm0,120A52.48,52.48,0,1,1,225,172.5,52.5,52.5,0,0,1,172.5,225Z"/></g></g></svg>