<svg xmlns="http://www.w3.org/2000/svg" viewBox="0 0 442.16 527"><g id="Layer_2" data-name="Layer 2"><g id="Layer_1-2" data-name="Layer 1"><path d="M217.85,254.13c33.88,0,63.22-12.15,87.2-36.13s36.12-53.3,36.12-87.19S329,67.6,305,43.62,251.73,7.5,217.85,7.5s-63.22,12.15-87.19,36.13-36.13,53.3-36.13,87.18S106.69,194,130.66,218,184,254.13,217.85,254.13Zm-66-189.29c18.39-18.39,40-27.34,66-27.34s47.58,9,66,27.34,27.34,40,27.34,66-8.95,47.58-27.34,66-40,27.34-66,27.34-47.57-8.95-66-27.34-27.34-40-27.34-66S133.48,83.24,151.88,64.84Z"/><path d="M217.85,261.63c-35.93,0-67-12.89-92.49-38.32S87,166.76,87,130.81s12.9-67.06,38.33-92.49S181.9,0,217.85,0s67.06,12.89,92.5,38.32,38.32,56.55,38.32,92.49-12.89,67.06-38.32,92.5S253.8,261.63,217.85,261.63Zm0-246.63C186,15,158.48,26.42,136,48.93S102,99,102,130.81,113.45,190.19,136,212.7s50.08,33.93,81.89,33.93,59.38-11.41,81.89-33.93,33.93-50.07,33.93-81.89-11.42-59.37-33.93-81.89S249.67,15,217.85,15Zm0,216.63c-28.08,0-51.39-9.66-71.27-29.54S117,158.9,117,130.81s9.66-51.4,29.54-71.27S189.76,30,217.85,30s51.4,9.66,71.28,29.54,29.54,43.19,29.54,71.27-9.66,51.4-29.54,71.28S245.94,231.63,217.85,231.63Zm0-186.63c-23.91,0-43.75,8.23-60.67,25.14S132,106.91,132,130.81s8.22,43.76,25.14,60.68,36.77,25.14,60.67,25.14,43.76-8.23,60.67-25.14,25.15-36.77,25.15-60.68-8.23-43.74-25.15-60.67S241.76,45,217.85,45Z"/><path d="M433.63,401.2a304,304,0,0,0-4.15-32.35,254.26,254.26,0,0,0-8-32.53A160.71,160.71,0,0,0,408.15,306,114.34,114.34,0,0,0,388,279.71a89.06,89.06,0,0,0-29-18.2,100.07,100.07,0,0,0-37-6.69c-5.23,0-10.28,2.14-20.05,8.5-6,3.92-13,8.45-20.87,13.46-6.71,4.27-15.8,8.28-27,11.9a104.91,104.91,0,0,1-66.09,0c-11.21-3.62-20.3-7.62-27-11.89-7.77-5-14.8-9.5-20.9-13.47-9.75-6.36-14.81-8.5-20-8.5a99.87,99.87,0,0,0-37,6.7,88.75,88.75,0,0,0-29,18.19A114.46,114.46,0,0,0,34,306a160.51,160.51,0,0,0-13.37,30.34,255.37,255.37,0,0,0-8,32.52,302.88,302.88,0,0,0-4.15,32.36c-.68,9.78-1,20-1,30.24,0,26.73,8.5,48.36,25.25,64.32C49.3,511.52,71.19,519.5,97.82,519.5H344.35c26.62,0,48.51-8,65.06-23.73,16.76-15.95,25.25-37.59,25.25-64.32C434.66,421.13,434.31,411,433.63,401.2ZM388.72,474c-10.93,10.41-25.45,15.47-44.38,15.47H97.82c-18.94,0-33.45-5.06-44.38-15.46C42.71,463.83,37.5,449.89,37.5,431.45c0-9.59.32-19.07,1-28.16a274.18,274.18,0,0,1,3.75-29.14,225,225,0,0,1,7-28.67,130.67,130.67,0,0,1,10.88-24.67A84.78,84.78,0,0,1,74.9,301.39a58.81,58.81,0,0,1,19.27-12,68.94,68.94,0,0,1,23.63-4.56c1,.56,2.92,1.63,6,3.6,6.17,4,13.28,8.61,21.14,13.63,8.86,5.65,20.27,10.75,33.91,15.15a134.78,134.78,0,0,0,84.54,0c13.65-4.41,25.06-9.5,33.93-15.16,8-5.14,15-9.59,21.12-13.62,3-2,4.9-3,5.95-3.6A69,69,0,0,1,348,289.41a59.08,59.08,0,0,1,19.27,12,84.53,84.53,0,0,1,14.81,19.42A130.28,130.28,0,0,1,393,345.47a224.28,224.28,0,0,1,7,28.68,275.17,275.17,0,0,1,3.75,29.14h0c.64,9.06,1,18.53,1,28.15C404.66,449.9,399.45,463.83,388.72,474Z"/><path d="M344.35,527H97.82c-28.62,0-52.25-8.68-70.24-25.8C9.28,483.77,0,460.3,0,431.45c0-10.47.35-20.81,1-30.76a309.49,309.49,0,0,1,4.25-33.16A263.86,263.86,0,0,1,13.48,334a169.17,169.17,0,0,1,14-31.76,121.87,121.87,0,0,1,21.5-28,96.1,96.1,0,0,1,31.39-19.76,107.49,107.49,0,0,1,39.73-7.22c7.75,0,14.46,3.41,24.13,9.71,6.06,4,13.07,8.47,20.85,13.43,6.14,3.93,14.64,7.66,25.26,11.09a97.52,97.52,0,0,0,61.47,0c10.62-3.43,19.12-7.16,25.29-11.09,7.78-5,14.78-9.49,20.82-13.42,9.68-6.31,16.39-9.72,24.14-9.72a107.49,107.49,0,0,1,39.73,7.22,96.3,96.3,0,0,1,31.39,19.75,122.05,122.05,0,0,1,21.5,28,168.16,168.16,0,0,1,14,31.76,262.19,262.19,0,0,1,8.19,33.49,312.9,312.9,0,0,1,4.25,33.15c.7,9.92,1.05,20.27,1.05,30.76,0,28.88-9.28,52.35-27.58,69.76C396.59,518.32,373,527,344.35,527ZM120.09,262.32a92.44,92.44,0,0,0-34.21,6.17,81.51,81.51,0,0,0-26.54,16.64,106.85,106.85,0,0,0-18.82,24.56,153.55,153.55,0,0,0-12.75,28.92,247.65,247.65,0,0,0-7.72,31.57,295,295,0,0,0-4,31.55c-.67,9.6-1,19.6-1,29.72,0,24.59,7.71,44.4,22.92,58.89S73.18,512,97.82,512H344.35c24.63,0,44.78-7.29,59.89-21.66s22.92-34.29,22.92-58.89c0-10.16-.34-20.15-1-29.72h0a298.73,298.73,0,0,0-4-31.55,247.07,247.07,0,0,0-7.72-31.56,152.77,152.77,0,0,0-12.75-28.91,106.86,106.86,0,0,0-18.83-24.57,81.49,81.49,0,0,0-26.54-16.65,92.64,92.64,0,0,0-34.21-6.16c-3,0-6.59,1.19-15.95,7.29-6.07,3.95-13.12,8.5-20.94,13.49-7.25,4.62-16.92,8.9-28.74,12.72a112.47,112.47,0,0,1-70.7,0c-11.83-3.82-21.5-8.1-28.73-12.71-7.81-5-14.86-9.54-21-13.51C126.69,263.51,123.11,262.32,120.09,262.32ZM344.34,497H97.82c-20.95,0-37.16-5.74-49.55-17.53S30,452.06,30,431.45c0-9.81.33-19.46,1-28.68a281.11,281.11,0,0,1,3.85-29.94,232.61,232.61,0,0,1,7.24-29.64,138.76,138.76,0,0,1,11.5-26.09A92.67,92.67,0,0,1,69.71,296a66.36,66.36,0,0,1,21.7-13.53,76.65,76.65,0,0,1,26.19-5.09l2-.05,1.75.93c1.74.92,3.93,2.25,6.53,3.94,6.38,4.16,13.48,8.74,21.07,13.59,8.33,5.3,19.15,10.13,32.18,14.33a127.32,127.32,0,0,0,79.93,0c13.05-4.22,23.88-9.05,32.21-14.35,8.17-5.22,15.05-9.67,21.05-13.58,2.63-1.71,4.82-3,6.53-3.94l1.75-.93,2,.05a76.71,76.71,0,0,1,26.2,5.09A66.42,66.42,0,0,1,372.43,296a91.73,91.73,0,0,1,16.15,21.14,137.8,137.8,0,0,1,11.51,26.08,232,232,0,0,1,7.24,29.63,282.61,282.61,0,0,1,3.85,29.95l0,.27c.63,9.11,1,18.67,1,28.41,0,20.62-6,36.32-18.27,48S365.29,497,344.34,497ZM116,292.43a60.44,60.44,0,0,0-19,3.95,51.59,51.59,0,0,0-16.84,10.43A77.24,77.24,0,0,0,66.6,324.52a123.78,123.78,0,0,0-10.26,23.24,219,219,0,0,0-6.76,27.72,264,264,0,0,0-3.64,28.33C45.32,412.69,45,422,45,431.45c0,16.29,4.45,28.44,13.61,37.15,9.47,9,22.29,13.4,39.21,13.4H344.34c16.91,0,29.74-4.39,39.21-13.4h0c9.16-8.71,13.61-20.86,13.61-37.15,0-9.49-.32-18.78-.94-27.62l0-.27a267,267,0,0,0-3.63-28.09,218.35,218.35,0,0,0-6.76-27.71,123.47,123.47,0,0,0-10.27-23.24,77,77,0,0,0-13.48-17.71,51.8,51.8,0,0,0-16.84-10.43,60.44,60.44,0,0,0-19-3.95c-.91.54-2.12,1.28-3.7,2.31-6,3.93-13,8.4-21.17,13.65-9.41,6-21.41,11.37-35.66,16a142.36,142.36,0,0,1-89.16,0c-14.24-4.6-26.23-10-35.64-16-7.64-4.88-14.77-9.47-21.19-13.66C118.11,293.73,116.9,293,116,292.43Z"/></g></g></svg>