<svg xmlns="http://www.w3.org/2000/svg" viewBox="0 0 515.98 522"><g id="Layer_2" data-name="Layer 2"><g id="Capa_1" data-name="Capa 1"><path d="M420.62,5H95.35A42.21,42.21,0,0,0,53.19,47.17V498.93H89.33V47.17a6.11,6.11,0,0,1,6-6H420.62a6.11,6.11,0,0,1,6,6V498.93h36.14V47.17A42.21,42.21,0,0,0,420.62,5Z"/><path d="M467.79,503.93H421.65V47.17a1.12,1.12,0,0,0-1-1H95.35a1.11,1.11,0,0,0-1,1V503.93H48.19V47.17A47.22,47.22,0,0,1,95.35,0H420.62a47.22,47.22,0,0,1,47.17,47.17Zm-36.14-10h26.14V47.17A37.21,37.21,0,0,0,420.62,10H95.35A37.2,37.2,0,0,0,58.19,47.17V493.93H84.33V47.17a11.17,11.17,0,0,1,11-11H420.62a11.18,11.18,0,0,1,11,11Z"/><path d="M492.91,480.86H23.07a18.07,18.07,0,0,0,0,36.14H492.91a18.07,18.07,0,0,0,0-36.14Z"/><path d="M492.91,522H23.07a23.07,23.07,0,0,1,0-46.14H492.91a23.07,23.07,0,0,1,0,46.14ZM23.07,485.86a13.07,13.07,0,0,0,0,26.14H492.91a13.07,13.07,0,0,0,0-26.14Z"/><path d="M349,231.7V175.39a91,91,0,0,0-181.92,0V231.7a123.06,123.06,0,1,0,181.92,0ZM258,116.53a58.93,58.93,0,0,1,58.86,58.86v31.06a122.91,122.91,0,0,0-117.72,0V175.39A58.92,58.92,0,0,1,258,116.53Zm0,288.94a91,91,0,1,1,91-91A91.06,91.06,0,0,1,258,405.47Z"/><path d="M258,442.57a128,128,0,0,1-96-212.79V175.39a96,96,0,0,1,191.92,0v54.4a128,128,0,0,1-96,212.78Zm0-353.14a86.06,86.06,0,0,0-86,86v58.24l-1.31,1.44a118.07,118.07,0,1,0,174.53,0l-1.3-1.43V175.39A86.06,86.06,0,0,0,258,89.43Zm0,321a96,96,0,1,1,96-96A96.07,96.07,0,0,1,258,410.47Zm0-181.92a86,86,0,1,0,86,86A86.06,86.06,0,0,0,258,228.55Zm63.86-13.66-7.4-4a117.89,117.89,0,0,0-112.92,0l-7.4,4v-39.5a63.86,63.86,0,0,1,127.72,0ZM258,121.53a53.92,53.92,0,0,0-53.86,53.86v22.94a127.93,127.93,0,0,1,107.72,0V175.39A53.92,53.92,0,0,0,258,121.53Z"/><path d="M258,271.7a26.74,26.74,0,0,0-16.05,48.14v21.42a16.05,16.05,0,0,0,32.1,0V319.84A26.74,26.74,0,0,0,258,271.7Z"/><path d="M258,362.31a21.07,21.07,0,0,1-21.05-21.05V322.21a31.42,31.42,0,0,1-10.7-23.75,31.75,31.75,0,1,1,63.5,0A31.45,31.45,0,0,1,279,322.21v19.05A21.07,21.07,0,0,1,258,362.31Zm0-85.61a21.75,21.75,0,0,0-13.05,39.15l2,1.5v23.91a11.05,11.05,0,0,0,22.1,0V317.35l2-1.5a21.75,21.75,0,0,0-13-39.15Z"/></g></g></svg>