<svg xmlns="http://www.w3.org/2000/svg" viewBox="0 0 512.01 503.42"><g id="Layer_2" data-name="Layer 2"><g id="Capa_1" data-name="Capa 1"><path d="M398,325.8a24.85,24.85,0,0,0-24.87,24.88V428.8a24.88,24.88,0,0,1-24.87,24.87H74.62A24.89,24.89,0,0,1,49.74,428.8V105.46A24.89,24.89,0,0,1,74.62,80.59H219.13a24.88,24.88,0,0,0,0-49.75H74.62A74.71,74.71,0,0,0,0,105.46V428.8a74.71,74.71,0,0,0,74.62,74.62H348.21a74.7,74.7,0,0,0,74.62-74.62V350.68A24.85,24.85,0,0,0,398,325.8Z"/><path d="M484.19,27.68a95.72,95.72,0,0,0-134.43-.22L181.37,195.84A129.84,129.84,0,0,0,143.26,288v55.72a24.85,24.85,0,0,0,24.88,24.87h55.71a129.82,129.82,0,0,0,92.2-38.13L484.22,162.31A95.38,95.38,0,0,0,484.19,27.68ZM280.91,295.29a80.39,80.39,0,0,1-57.06,23.57H193V288a80.35,80.35,0,0,1,23.55-57l111-111,64.32,64.32ZM449,127.17l-22,22L362.74,84.81l22-22A45.48,45.48,0,1,1,449,127.17Z"/></g></g></svg>