<svg xmlns="http://www.w3.org/2000/svg" viewBox="0 0 512 512"><g id="Layer_2" data-name="Layer 2"><g id="Layer_1-2" data-name="Layer 1"><g id="Layer_2-2" data-name="Layer 2"><g id="Layer_1-2-2" data-name="Layer 1-2"><g id="Capa_1" data-name="Capa 1"><path d="M256,435.88c-99.25,0-180-80.75-180-180s80.75-180,180-180,180,80.75,180,180S355.25,435.88,256,435.88Zm0-320c-77.2,0-140,62.8-140,140s62.8,140,140,140,140-62.81,140-140S333.2,115.88,256,115.88ZM328.77,322a99.61,99.61,0,0,0,19.59-31.33l-37.72-13.31.06-.16c-.55,1.46-13.81,35.82-53.36,35.82-40.27,0-55.74-35.19-56.37-36.69l.06.14-37,15.07a105.56,105.56,0,0,0,21,30.86c19.36,20,44.39,30.6,72.38,30.6S310.25,342.27,328.77,322ZM198,225a20,20,0,1,0-20-20A20,20,0,0,0,198,225Zm117,0a20,20,0,1,0-20-20A20,20,0,0,0,315,225ZM40,60A20,20,0,0,1,60,40h81V0H60A60.07,60.07,0,0,0,0,60v80H40Zm472,0A60.07,60.07,0,0,0,452,0H371V40h81a20,20,0,0,1,20,20v80h40ZM141,472H60a20,20,0,0,1-20-20V372H0v80a60.07,60.07,0,0,0,60,60h81Zm371-20V372H472v80a20,20,0,0,1-20,20H371v40h81A60.07,60.07,0,0,0,512,452Z"/></g></g></g></g></g></svg>