<svg xmlns="http://www.w3.org/2000/svg" viewBox="0 0 522 490"><g id="Layer_2" data-name="Layer 2"><g id="Layer_1-2" data-name="Layer 1"><g id="Layer_2-2" data-name="Layer 2"><g id="Capa_1" data-name="Capa 1"><path d="M472,5H50A45.05,45.05,0,0,0,5,50V350a45.05,45.05,0,0,0,45,45H96v75a15,15,0,0,0,25.61,10.61L207.21,395H472a45.05,45.05,0,0,0,45-45V50A45.05,45.05,0,0,0,472,5Zm15,345a15,15,0,0,1-15,15H201a15,15,0,0,0-10.61,4.39L126,433.79V380a15,15,0,0,0-15-15H50a15,15,0,0,1-15-15V50A15,15,0,0,1,50,35H472a15,15,0,0,1,15,15Z"/><path d="M111,490a20,20,0,0,1-20-20V400H50A50.06,50.06,0,0,1,0,350V50A50.06,50.06,0,0,1,50,0H472a50.06,50.06,0,0,1,50,50V350a50.06,50.06,0,0,1-50,50H209.28l-84.14,84.14A19.89,19.89,0,0,1,111,490ZM50,10A40,40,0,0,0,10,50V350a40,40,0,0,0,40,40h51v80a10,10,0,0,0,17.07,7.07L205.14,390H472a40,40,0,0,0,40-40V50a40,40,0,0,0-40-40Zm71,435.86V380a10,10,0,0,0-10-10H50a20,20,0,0,1-20-20V50A20,20,0,0,1,50,30H472a20,20,0,0,1,20,20V350a20,20,0,0,1-20,20H201a9.93,9.93,0,0,0-7.07,2.93ZM50,40A10,10,0,0,0,40,50V350a10,10,0,0,0,10,10h61a20,20,0,0,1,20,20v41.71l55.86-55.85A19.89,19.89,0,0,1,201,360H472a10,10,0,0,0,10-10V50a10,10,0,0,0-10-10Z"/><path d="M380.29,164.91a15,15,0,0,0-12.18-10.28l-64.81-9.19L274.39,88.23a15,15,0,0,0-26.78,0L218.7,145.44l-64.81,9.19a15,15,0,0,0-8.23,25.72l46.68,44.42-11,62.63A15,15,0,0,0,203,303.34l58-29.79,58,29.8a15,15,0,0,0,21.63-16l-11-62.63,46.68-44.42A15,15,0,0,0,380.29,164.91Zm-77.13,43.67A15,15,0,0,0,298.73,222l7.17,40.84-38-19.53a15,15,0,0,0-13.7,0l-38.1,19.57L223.27,222a15,15,0,0,0-4.43-13.46L188.79,180l41.87-6a15,15,0,0,0,11.28-8L261,128.25,280.06,166a15,15,0,0,0,11.28,8l41.87,6Z"/><path d="M325.91,310a20.1,20.1,0,0,1-9.15-2.23L261,279.17l-55.76,28.62a20,20,0,0,1-28.83-21.25l10.54-60L142.21,184a20,20,0,0,1,11-34.29l62.22-8.83L243.15,86a20,20,0,0,1,35.7,0l27.74,54.87,62.22,8.83a20.11,20.11,0,0,1,16.24,13.71h0A20.12,20.12,0,0,1,379.79,184l-44.74,42.58,10.54,60a20,20,0,0,1-16.29,23.13A20.24,20.24,0,0,1,325.91,310ZM261,267.93l60.33,31a10,10,0,0,0,14.41-10.63L324.28,223l48.61-46.27a10,10,0,0,0,2.63-10.29h0a10.07,10.07,0,0,0-8.11-6.86L300,150,269.9,90.47a10,10,0,0,0-17.85,0L222,150l-67.38,9.56a10,10,0,0,0-5.49,17.15L197.72,223l-11.46,65.27a10,10,0,0,0,14.41,10.62Zm51.56,4-47-24.13a10.21,10.21,0,0,0-9.14,0l-47,24.13,8.91-50.74a10,10,0,0,0-3-9L177.8,176.47l52.1-7.39a10,10,0,0,0,7.52-5.39L261,117.17l23.52,46.53a10,10,0,0,0,7.52,5.39l52.1,7.39L306.61,212.2a10,10,0,0,0-3,9ZM199.72,183.48,222.29,205A20,20,0,0,1,228.2,223l-5.43,30.92,29.1-14.93a20.31,20.31,0,0,1,18.26,0l29.1,14.93L293.8,223A20,20,0,0,1,299.71,205l22.57-21.48L290.64,179a20,20,0,0,1-15-10.78L261,139.33l-14.6,28.88a20,20,0,0,1-15,10.78Z"/></g></g></g></g></svg>