<svg xmlns="http://www.w3.org/2000/svg" viewBox="0 0 522 472.11"><g id="Layer_2" data-name="Layer 2"><g id="Capa_1" data-name="Capa 1"><path d="M517,151.94C514.64,35.59,372.66-50.15,261,47.49,149.41-50.09,7.36,35.53,5,151.94c-.86,42.65,17.22,83.71,52.26,118.74L250.42,462.76a15,15,0,0,0,21.16,0L464.71,270.68c35-35,53.11-76.09,52.26-118.74ZM261,431,96.22,267.08h52.72a15,15,0,0,0,12.87-7.29l11.52-19.19,43,67.54a15,15,0,0,0,26.23-1.63l59.33-125.22,41.95,77.9a15,15,0,0,0,13.22,7.89h68.72ZM454.81,237.07H366l-51.78-96.14a15,15,0,0,0-26.77.7L227.05,269.11,185.62,204a15,15,0,0,0-25.53.33l-19.64,32.73H67.2C45.52,211,34.45,182.06,35,152.54,36.91,59,156.17-15.56,250.39,78.64a15,15,0,0,0,21.22,0c120.3-120.28,285.69,35.2,183.2,158.43Z"/><path d="M261,472.11a20,20,0,0,1-14.11-5.81L136.46,356.47c-75.1-74.68-82-81.54-82.7-82.25h0C17.73,238.2-.85,195.88,0,151.84,1.22,92.24,38.14,37.76,94.07,13A150.45,150.45,0,0,1,177.34,1.66c29.84,4.48,58,17.68,83.66,39.24,25.7-21.57,53.83-34.77,83.66-39.25A150.51,150.51,0,0,1,427.92,13C483.86,37.74,520.78,92.23,522,151.84h0c.88,44-17.7,86.36-53.73,122.38L275.11,466.3A20,20,0,0,1,261,472.11ZM60.87,267.19l82.64,82.19L253.94,459.21a10,10,0,0,0,14.12,0L461.18,267.14c34.05-34,51.62-73.85,50.79-115.1C510.86,96.3,476.28,45.32,423.88,22.16,370.55-1.4,312.39,9.2,264.29,51.25L261,54.13l-3.29-2.88C209.62,9.2,151.45-1.39,98.11,22.18,45.72,45.34,11.14,96.31,10,152c-.83,41.25,16.74,81.06,50.8,115.11ZM261,438,84.11,262.08h64.83a10.06,10.06,0,0,0,8.59-4.86l15.68-26.13,47.33,74.37A10,10,0,0,0,238,304.37l63.56-134.16,46.64,86.61a10,10,0,0,0,8.82,5.26h80.84ZM108.34,272.08,261,423.91,413.66,272.08H357.05a20,20,0,0,1-17.62-10.52l-37.27-69.2-55.1,116.29a20,20,0,0,1-35,2.17l-38.64-60.71-7.36,12.26a20.11,20.11,0,0,1-17.16,9.71Zm119.36,7.35-46.3-72.74a10,10,0,0,0-17,.23l-21.1,35.15H64.85l-1.5-1.8C41,213.33,29.43,183,30,152.44c1-49,33.14-94.65,80-113.52,48.79-19.64,101.23-6.45,143.87,36.18a10,10,0,0,0,14.16,0c29-29,62.75-44.45,97.7-44.78,31.11-.32,61.25,11.45,85,33.08,23.31,21.27,37.73,49.67,40.62,80,3.22,33.8-8.09,67.31-32.71,96.91l-1.5,1.8H363l-53.19-98.76a10,10,0,0,0-17.85.46ZM173,192.06a19.85,19.85,0,0,1,16.85,9.27l36.57,57.46,56.53-119.31a20,20,0,0,1,35.7-.92L369,232.07h83.44c49.07-60.71,30.22-126-8.44-161.29C403,33.39,334.92,22.42,275.15,82.17a20,20,0,0,1-28.3,0c-39.67-39.66-88.17-52-133.06-34C70.58,65.59,40.94,107.57,40,152.64c-.55,27.41,9.65,54.83,29.52,79.43h68.06l18.18-30.3a19.91,19.91,0,0,1,16.93-9.71Z"/></g></g></svg>