<svg xmlns="http://www.w3.org/2000/svg" viewBox="0 0 490.03 391.99"><g id="Layer_2" data-name="Layer 2"><g id="Layer_1-2" data-name="Layer 1"><path d="M435.67,5.29a18,18,0,0,0-25.5,0l-64,64c-79.3-36-163.9-27.2-244.6,25.5C41.47,134,5,183.29,3.47,185.39a18.16,18.16,0,0,0,.5,22c34.2,42,70,74.7,106.6,97.5l-56.3,56.3a18,18,0,1,0,25.4,25.5l356-355.9A18.11,18.11,0,0,0,435.67,5.29ZM200.47,215a46.82,46.82,0,0,1-3.9-19,48.47,48.47,0,0,1,67.5-44.6Zm90.2-90.1a84.37,84.37,0,0,0-116.6,116.6L137,278.59c-32.5-18.8-64.5-46.6-95.6-82.9,13.3-15.6,41.4-45.7,79.9-70.8,66.6-43.4,132.9-52.8,197.5-28.1Z"/><path d="M486.07,184.59c-24.7-30.4-50.3-56-76.3-76.3a18.05,18.05,0,1,0-22.3,28.4c20.6,16.1,41.2,36.1,61.2,59.5a394.59,394.59,0,0,1-66,61.3c-60.1,43.7-120.8,59.5-180.3,46.9a18,18,0,0,0-7.4,35.2,224.08,224.08,0,0,0,46.8,4.9,237.92,237.92,0,0,0,71.1-11.1c31.1-9.7,62-25.7,91.9-47.5,50.4-36.9,80.5-77.6,81.8-79.3A18.16,18.16,0,0,0,486.07,184.59Z"/></g></g></svg>