<svg xmlns="http://www.w3.org/2000/svg" viewBox="0 0 512 490.97"><g id="Layer_2" data-name="Layer 2"><g id="Layer_1-2" data-name="Layer 1"><g id="Layer_2-2" data-name="Layer 2"><g id="Capa_1" data-name="Capa 1"><path d="M506.1,254.17a20,20,0,0,1-28.28-.08h0L462,238.17V311a20,20,0,0,1-40,0V197.9L269.89,44.79a20,20,0,0,0-25.94,0L90,198.39V411a40,40,0,0,0,40,40h52V288a20,20,0,0,1,20-20H312a20,20,0,0,1,20,20V451h50a40,40,0,0,0,40-40,20,20,0,0,1,40,0,80.09,80.09,0,0,1-80,80H312a20,20,0,0,1-20-20V308H222V471a20,20,0,0,1-20,20H130a80.09,80.09,0,0,1-80-80V238.3L34.13,254.14A20,20,0,0,1,5.87,225.83h0L216.16,16l.83-.78a60,60,0,0,1,80,.17c.28.26.56.52.83.79L506.19,225.89A20,20,0,0,1,506.1,254.17Z"/></g></g></g></g></svg>