<svg xmlns="http://www.w3.org/2000/svg" viewBox="0 0 320 270"><g id="Layer_2" data-name="Layer 2"><g id="Layer_1-2" data-name="Layer 1"><path d="M51.21,150H225a15,15,0,0,0,0-30H51.21l19.4-19.39A15,15,0,0,0,49.39,79.39l-45,45a13.07,13.07,0,0,0-1,1.11c-.14.16-.26.34-.39.51s-.33.44-.49.67a6.74,6.74,0,0,0-.38.64c-.13.2-.26.4-.37.61s-.22.45-.32.67-.22.44-.31.66-.16.45-.24.67-.18.47-.25.72-.12.45-.18.67-.13.5-.18.75-.08.52-.12.78-.07.45-.09.67A14.28,14.28,0,0,0,0,135v0a14.13,14.13,0,0,0,.08,1.46c0,.23.06.44.09.66s.07.53.12.79.12.5.18.75.11.45.18.68.16.47.25.71.15.45.24.67.2.43.3.65.21.46.33.68.24.4.36.6.25.45.4.66.31.42.46.64l.41.54c.3.36.62.71.95,1.05l0,.05,45,45A15,15,0,0,0,70.61,169.4Z"/><path d="M305,0H115a15,15,0,0,0-15,15V75a15,15,0,0,0,30,0V30H290V240H130V195a15,15,0,0,0-30,0v60a15,15,0,0,0,15,15H305a15,15,0,0,0,15-15V15A15,15,0,0,0,305,0Z"/></g></g></svg>