<svg xmlns="http://www.w3.org/2000/svg" viewBox="0 0 440 512"><g id="Layer_2" data-name="Layer 2"><g id="Layer_1-2" data-name="Layer 1"><g id="Layer_2-2" data-name="Layer 2"><g id="Capa_1" data-name="Capa 1"><path d="M360,332V278.9H320V332c0,28.28,14.94,43.23,25.86,54.14,2.15,2.16,4,4.07,5.68,5.86H48.46c1.64-1.79,3.53-3.7,5.68-5.86C65.06,375.23,80,360.28,80,332V200A119.75,119.75,0,0,1,154.54,88.94l18.5-7.6-15.21-37L139.33,52A160.17,160.17,0,0,0,40,200V332c0,11.24-4.34,16.05-14.14,25.86C15,368.77,0,383.72,0,412v20H140v20a60,60,0,0,0,120,0V432H400V412c0-28.28-14.95-43.23-25.86-54.14C364.34,348.05,360,343.24,360,332ZM220,452a20,20,0,0,1-40,0V432h40ZM320,0A120,120,0,1,0,440,120,120,120,0,0,0,320,0Zm0,200a80,80,0,1,1,80-80A80,80,0,0,1,320,200Zm-20-40h40V80H300Z"/></g></g></g></g></svg>