<svg xmlns="http://www.w3.org/2000/svg" viewBox="0 0 522 466.12"><g id="Layer_2" data-name="Layer 2"><g id="Layer_1-2" data-name="Layer 1"><g id="Layer_2-2" data-name="Layer 2"><g id="Layer_1-2-2" data-name="Layer 1-2"><path d="M486.09,5H35.91A31,31,0,0,0,5,35.91V346.73a31,31,0,0,0,30.91,30.91H190.17v22.49a37.44,37.44,0,0,1-37.39,37.39h-34a11.8,11.8,0,1,0,0,23.6H403.22a11.8,11.8,0,0,0,0-23.6h-34a37.43,37.43,0,0,1-37.39-37.39V377.64H486.09A31,31,0,0,0,517,346.73V35.91A31,31,0,0,0,486.09,5ZM200.92,437.52a60.68,60.68,0,0,0,12.86-37.39V377.64h94.44v22.49a60.74,60.74,0,0,0,12.86,37.39Zm292.47-90.79a7.3,7.3,0,0,1-7.3,7.3H35.91a7.32,7.32,0,0,1-7.31-7.3v-62H493.39Zm0-85.64H28.61V35.91a7.32,7.32,0,0,1,7.3-7.31H486.09a7.32,7.32,0,0,1,7.3,7.31V261.09Z"/><path d="M403.22,466.12H118.78a16.8,16.8,0,1,1,0-33.6h34a32.43,32.43,0,0,0,32.39-32.39V382.64H35.91A36,36,0,0,1,0,346.73V35.91A36,36,0,0,1,35.91,0H486.09A36,36,0,0,1,522,35.91V346.73a36,36,0,0,1-35.91,35.91H336.83v17.49a32.43,32.43,0,0,0,32.39,32.39h34a16.8,16.8,0,0,1,0,33.6Zm-284.44-23.6a6.8,6.8,0,1,0,0,13.6H403.22a6.8,6.8,0,0,0,0-13.6h-34a42.44,42.44,0,0,1-42.39-42.39V372.64H486.09A26,26,0,0,0,512,346.73V35.91A26,26,0,0,0,486.09,10H35.91A26,26,0,0,0,10,35.91V346.73a26,26,0,0,0,25.91,25.91H195.17v27.49a42.44,42.44,0,0,1-42.39,42.39Zm212.53,0H190.69l6.28-8.07a55.39,55.39,0,0,0,11.81-34.32V372.64H313.22v27.49A55.36,55.36,0,0,0,325,434.45Zm-121-10H311.74a65.11,65.11,0,0,1-8.52-32.39V382.64H218.78v17.49a65.11,65.11,0,0,1-8.52,32.39ZM486.09,359H35.91A12.33,12.33,0,0,1,23.6,346.7v-67H498.39v67A12.32,12.32,0,0,1,486.09,359ZM33.6,289.7v57a2.32,2.32,0,0,0,2.31,2.3H486.09a2.3,2.3,0,0,0,2.3-2.3v-57Zm464.79-23.61H23.61V35.91A12.33,12.33,0,0,1,35.91,23.6H486.09a12.32,12.32,0,0,1,12.3,12.31Zm-464.78-10H488.39V35.91a2.32,2.32,0,0,0-2.3-2.31H35.91a2.32,2.32,0,0,0-2.3,2.31Z"/><circle cx="261" cy="319.37" r="12.74"/><path d="M261,337.11a17.74,17.74,0,1,1,17.74-17.74h0A17.75,17.75,0,0,1,261,337.11Zm0-25.48a7.74,7.74,0,1,0,7.74,7.74h0a7.75,7.75,0,0,0-7.74-7.74Z"/><path d="M281.24,86.32a11.8,11.8,0,0,0-16.69,0h0l-83.42,83.41a11.8,11.8,0,0,0,16.69,16.69L281.24,103A11.81,11.81,0,0,0,281.24,86.32Z"/><path d="M189.48,194.88A16.8,16.8,0,0,1,177.6,166.2L261,82.78a16.82,16.82,0,0,1,23.76,0h0a16.82,16.82,0,0,1,0,23.76L201.36,190A16.69,16.69,0,0,1,189.48,194.88Zm83.41-107a6.81,6.81,0,0,0-4.81,2L184.67,173.3a6.8,6.8,0,1,0,9.62,9.62L277.7,99.47a6.8,6.8,0,0,0-4.81-11.61Z"/><path d="M330.68,134.66a11.82,11.82,0,0,0-16.69,0l-33.23,33.23a11.81,11.81,0,0,0,16.69,16.7l33.23-33.23a11.8,11.8,0,0,0,0-16.69Z"/><path d="M289.1,193a16.65,16.65,0,0,1-11.88-4.92,16.82,16.82,0,0,1,0-23.76l33.23-33.23a16.82,16.82,0,0,1,23.76,0h0a16.82,16.82,0,0,1,0,23.76L301,188.11A16.65,16.65,0,0,1,289.1,193Zm33.23-56.83a6.81,6.81,0,0,0-4.81,2L284.29,171.4a6.8,6.8,0,0,0,9.62,9.62l33.23-33.23a6.81,6.81,0,0,0,0-9.62h0a6.78,6.78,0,0,0-4.81-2Z"/></g></g></g></g></svg>