<svg xmlns="http://www.w3.org/2000/svg" viewBox="0 0 426.67 512"><g id="Layer_2" data-name="Layer 2"><g id="Capa_1" data-name="Capa 1"><path d="M362.67,170.67V149.33C362.67,67,295.68,0,213.33,0S64,67,64,149.33v21.34a64.08,64.08,0,0,0-64,64V448a64.08,64.08,0,0,0,64,64H362.67a64.08,64.08,0,0,0,64-64V234.67A64.08,64.08,0,0,0,362.67,170.67Zm-256-21.34a106.67,106.67,0,0,1,213.33,0v21.34H106.67ZM384,448a21.35,21.35,0,0,1-21.33,21.33H64A21.35,21.35,0,0,1,42.67,448V234.67A21.36,21.36,0,0,1,64,213.33H362.67A21.36,21.36,0,0,1,384,234.67Z"/><path d="M213.33,245.33A63.85,63.85,0,0,0,192,369.41v35.92a21.34,21.34,0,1,0,42.67,0V369.41a63.85,63.85,0,0,0-21.34-124.08Zm0,85.34a21.34,21.34,0,1,1,21.34-21.34A21.36,21.36,0,0,1,213.33,330.67Z"/></g></g></svg>