<svg xmlns="http://www.w3.org/2000/svg" viewBox="0 0 450 522"><g id="Layer_2" data-name="Layer 2"><g id="Layer_1-2" data-name="Layer 1"><g id="Layer_2-2" data-name="Layer 2"><g id="Layer_1-2-2" data-name="Layer 1-2"><path d="M440.53,112,335.93,9.3A15,15,0,0,0,325.42,5H61A56,56,0,0,0,5,61V461a56,56,0,0,0,56,56H389.05a56,56,0,0,0,56-56V122.73A15,15,0,0,0,440.53,112ZM340.42,55.76l52.92,52H345.19a4.79,4.79,0,0,1-4.77-4.77ZM389.05,487H61a26,26,0,0,1-26-26h0V61A26,26,0,0,1,61,35H310.42v68a34.81,34.81,0,0,0,34.77,34.77H415V461A26,26,0,0,1,389.05,487Z"/><path d="M389.05,522H61A61,61,0,0,1,0,461H0V61A61,61,0,0,1,61,0H325.42a19.88,19.88,0,0,1,14,5.73L444,108.46a20.15,20.15,0,0,1,6,14.27V461A61,61,0,0,1,389.05,522ZM61,10A51,51,0,0,0,10,61V461a51,51,0,0,0,51,51H389.05a51,51,0,0,0,51-51V122.73a10.06,10.06,0,0,0-3-7.13L332.43,12.86a10,10,0,0,0-7-2.86ZM389.05,492H61a31,31,0,0,1-31-31V61A31,31,0,0,1,61,30H315.42v73a29.81,29.81,0,0,0,29.77,29.77H420V461A31,31,0,0,1,389.05,492ZM61,40A21,21,0,0,0,40,61V461a21,21,0,0,0,21,21H389.05a21,21,0,0,0,21-21h0V142.73H345.19A39.81,39.81,0,0,1,305.42,103V40Zm344.6,72.73H345.19a9.79,9.79,0,0,1-9.77-9.77V43.84Zm-60.15-10h35.69l-35.69-35Z"/><path d="M329.14,243H117.69a15,15,0,0,0,0,30H329.14a15,15,0,0,0,0-30Z"/><path d="M329.14,278H117.69a20,20,0,0,1,0-40H329.14a20,20,0,0,1,0,40ZM117.69,248a10,10,0,0,0,0,20H329.14a10,10,0,0,0,0-20Z"/><path d="M117.69,333H290.11a15,15,0,0,0,0-30H117.69a15,15,0,0,0,0,30Z"/><path d="M290.11,338H117.69a20,20,0,0,1,0-40H290.11a20,20,0,0,1,0,40ZM117.69,308a10,10,0,0,0,0,20H290.11a10,10,0,0,0,0-20Z"/><path d="M310.91,363H117.69a15,15,0,0,0,0,30H310.91a15,15,0,1,0,0-30Z"/><path d="M310.91,398H117.69a20,20,0,0,1,0-40H310.91a20,20,0,1,1,0,40ZM117.69,368a10,10,0,0,0,0,20H310.91a10,10,0,1,0,0-20Z"/></g></g></g></g></svg>