<svg xmlns="http://www.w3.org/2000/svg" viewBox="0 0 380.97 522"><g id="Layer_2" data-name="Layer 2"><g id="Capa_1" data-name="Capa 1"><path d="M326.42,407.27V262.46c0-73.82-58.26-135.3-132-137.4C117.58,122.87,54.42,184.7,54.42,261V407.27a47.58,47.58,0,0,0-33,45.23V517h338V452.5A47.58,47.58,0,0,0,326.42,407.27ZM84.42,372h212v33h-212ZM193.5,155c57.51,1.64,102.92,49.56,102.92,107.1V342h-212V261A106.12,106.12,0,0,1,193.5,155ZM329.42,487h-278V452.5A17.5,17.5,0,0,1,68.92,435h243a17.51,17.51,0,0,1,17.5,17.5Z"/><path d="M364.42,522h-348V452.5a52.34,52.34,0,0,1,33-48.74V261a140.64,140.64,0,0,1,242.26-97.59,142.66,142.66,0,0,1,39.74,99v141.3a52.35,52.35,0,0,1,33,48.74Zm-338-10h328V452.5A42.4,42.4,0,0,0,324.89,412l-3.47-1.11V262.46c0-71-57.06-130.41-127.19-132.41A131.14,131.14,0,0,0,59.42,261V410.92L56,412A42.39,42.39,0,0,0,26.42,452.5Zm308-20h-288V452.5A22.52,22.52,0,0,1,68.92,430h243a22.53,22.53,0,0,1,22.5,22.5Zm-278-10h268V452.5a12.52,12.52,0,0,0-12.5-12.5h-243a12.51,12.51,0,0,0-12.5,12.5Zm245-72h-222V367h222Zm-212-10h202V377h-202Zm212-53h-222V261a110.72,110.72,0,0,1,190.72-76.83,112.28,112.28,0,0,1,31.28,78Zm-212-10h202V262.14c0-54.76-44-100.56-98.06-102.1A101.12,101.12,0,0,0,89.42,261Z"/><path d="M190.42,5h0a15,15,0,0,1,15,15V62a15,15,0,0,1-15,15h0a15,15,0,0,1-15-15V20A15,15,0,0,1,190.42,5Z"/><path d="M190.42,82a20,20,0,0,1-20-20V20a20,20,0,0,1,40,0V62A20,20,0,0,1,190.42,82Zm0-72a10,10,0,0,0-10,10V62a10,10,0,0,0,20,0V20A10,10,0,0,0,190.42,10Z"/><path d="M254.12,68.73l15.63-39a15,15,0,0,1,19.5-8.34h0a15,15,0,0,1,8.34,19.5L282,79.89a15,15,0,0,1-19.5,8.34h0A15,15,0,0,1,254.12,68.73Z"/><path d="M268,94.3a20,20,0,0,1-18.53-27.43l15.63-39a20,20,0,0,1,37.13,14.88l-15.64,39A20,20,0,0,1,268,94.3Zm15.66-69a10,10,0,0,0-9.28,6.28l-15.63,39A10,10,0,0,0,277.32,78L293,39a10,10,0,0,0-9.28-13.72Z"/><path d="M321.55,106.43l28.33-31.06a15,15,0,0,1,21.2-1h0a15,15,0,0,1,1,21.2l-28.33,31.06a15,15,0,0,1-21.19,1h0A15,15,0,0,1,321.55,106.43Z"/><path d="M332.63,136.53a20,20,0,0,1-14.77-33.47L346.19,72a20,20,0,0,1,29.56,27L347.42,130A20,20,0,0,1,332.63,136.53Zm28.34-61a10,10,0,0,0-7.39,3.26L325.25,109.8A10,10,0,1,0,340,123.28l28.33-31.06A10,10,0,0,0,361,75.48Z"/><path d="M91.61,21.2h0a15,15,0,0,1,19.5,8.34l15.63,39A15,15,0,0,1,118.4,88h0A15,15,0,0,1,98.9,79.7l-15.63-39A15,15,0,0,1,91.61,21.2Z"/><path d="M112.85,94.12A20,20,0,0,1,94.26,81.56l-15.64-39a20,20,0,1,1,37.13-14.88l15.63,39a20,20,0,0,1-18.53,27.44Zm-15.66-69a10,10,0,0,0-3.72.72h0a10,10,0,0,0-5.56,13l15.63,39a10,10,0,1,0,18.56-7.43l-15.64-39a9.91,9.91,0,0,0-5.34-5.47A10,10,0,0,0,97.19,25.12Z"/><path d="M9.88,74.38h0a15,15,0,0,1,21.2,1l28.33,31.07a15,15,0,0,1-1,21.19h0a15,15,0,0,1-21.19-1L8.91,95.57A15,15,0,0,1,9.88,74.38Z"/><path d="M48.33,136.52A20,20,0,0,1,33.54,130L5.21,98.94A20,20,0,0,1,34.77,72L63.1,103.05a20,20,0,0,1-14.77,33.47ZM20,75.46A10,10,0,0,0,12.6,92.21l28.33,31.06a10,10,0,1,0,14.78-13.48L27.38,78.72a9.94,9.94,0,0,0-6.93-3.25Z"/><path d="M175.42,188h30v81.33h-30Z"/><path d="M210.42,274.33h-40V183h40Zm-30-10h20V193h-20Z"/><path d="M175.42,290h30v30h-30Z"/><path d="M210.42,325h-40V285h40Zm-30-10h20V295h-20Z"/></g></g></svg>