<svg xmlns="http://www.w3.org/2000/svg" viewBox="0 0 512 512"><g id="Layer_2" data-name="Layer 2"><g id="Layer_1-2" data-name="Layer 1"><g id="Layer_2-2" data-name="Layer 2"><g id="Capa_1" data-name="Capa 1"><path d="M256,372a115.89,115.89,0,1,1,111.35-83.39,20,20,0,0,1-38.87-9.45c.15-.6.32-1.19.52-1.77a75.93,75.93,0,1,0-50,51.08,20,20,0,0,1,12,38.14A115.78,115.78,0,0,1,256,372Zm70,80V441.93a6.67,6.67,0,0,1,4.23-6.11l.39-.16A6.71,6.71,0,0,1,338,437l7.13,7.12a60,60,0,0,0,84.85,0L444.09,430a60,60,0,0,0,0-84.85L437,338a6.69,6.69,0,0,1-1.31-7.35l.15-.37A6.68,6.68,0,0,1,442,326h10a60.07,60.07,0,0,0,60-60V246a60.07,60.07,0,0,0-60-60H441.93a6.68,6.68,0,0,1-6.1-4.19l-.17-.43A6.67,6.67,0,0,1,437,174l7.12-7.12a60.08,60.08,0,0,0,0-84.86L430,67.91a60,60,0,0,0-84.85,0L338,75a6.69,6.69,0,0,1-7.34,1.32l-.38-.16A6.68,6.68,0,0,1,326,70.07V60A60.07,60.07,0,0,0,266,0H246a60.07,60.07,0,0,0-60,60V70.07a6.67,6.67,0,0,1-4.23,6.11l-.39.16A6.71,6.71,0,0,1,174,75l-7.12-7.12a60,60,0,0,0-84.85,0L67.91,82.05a60.07,60.07,0,0,0,0,84.86L75,174a6.74,6.74,0,0,1,1.28,7.43l-.12.29A6.69,6.69,0,0,1,70.07,186H60A60.07,60.07,0,0,0,0,246v20a60.07,60.07,0,0,0,60,60H70.07a6.68,6.68,0,0,1,6.1,4.19l.17.43A6.71,6.71,0,0,1,75,338l-7.12,7.12a60,60,0,0,0,0,84.85L82,444.11a60,60,0,0,0,84.85,0L174,437a6.67,6.67,0,0,1,7.34-1.31l.38.15A6.68,6.68,0,0,1,186,442v10a60.07,60.07,0,0,0,60,60h20A60.07,60.07,0,0,0,326,452ZM145.74,408.68l-7.12,7.13a20,20,0,0,1-28.28,0L96.19,401.66a20,20,0,0,1,0-28.28l7.13-7.12a46.58,46.58,0,0,0,10-51l-.13-.32a46.57,46.57,0,0,0-43.09-29H60a20,20,0,0,1-20-20V246a20,20,0,0,1,20-20H70.07a46.58,46.58,0,0,0,43.12-29l.09-.23a46.54,46.54,0,0,0-10-51l-7.12-7.12a20,20,0,0,1,0-28.28h0L110.3,96.22a20,20,0,0,1,28.28,0h0l7.12,7.13a46.6,46.6,0,0,0,51,10l.29-.12a46.57,46.57,0,0,0,29-43.09V60a20,20,0,0,1,20-20h20a20,20,0,0,1,20,20V70.07a46.56,46.56,0,0,0,29,43.1l.27.11a46.58,46.58,0,0,0,51-10l7.12-7.13a20,20,0,0,1,28.28,0h0l14.14,14.15a20,20,0,0,1,0,28.28l-7.12,7.12a46.55,46.55,0,0,0-10,50.91l.15.37a46.57,46.57,0,0,0,43.09,29H452a20,20,0,0,1,20,20v20a20,20,0,0,1-20,20H441.93a46.57,46.57,0,0,0-43.09,29l-.13.32a46.58,46.58,0,0,0,10,51l7.13,7.12a20,20,0,0,1,0,28.28L401.7,415.85a20,20,0,0,1-28.28,0h0l-7.12-7.13a46.6,46.6,0,0,0-51-10l-.29.12a46.57,46.57,0,0,0-29,43.09V452a20,20,0,0,1-20,20H246a20,20,0,0,1-20-20V441.93a46.56,46.56,0,0,0-29-43.1l-.27-.11a47,47,0,0,0-18.13-3.64A46.38,46.38,0,0,0,145.74,408.68Z"/></g></g></g></g></svg>