<svg xmlns="http://www.w3.org/2000/svg" viewBox="0 0 294 290.23"><g id="Layer_2" data-name="Layer 2"><g id="Layer_1-2" data-name="Layer 1"><g id="Layer_2-2" data-name="Layer 2"><g id="Layer_1-2-2" data-name="Layer 1-2"><path d="M35,68c19,0,34.45-15.25,34.45-34S54,0,35,0A34.24,34.24,0,0,0,.57,34,34.24,34.24,0,0,0,35,68Zm0-45.31a11.41,11.41,0,1,1-.11,0ZM282.52,135.18A11.4,11.4,0,0,0,294,123.86h0V113.28c0-18.74-15.45-34-34.45-34h-5.14a11.5,11.5,0,0,0-10.15,6l-28.95,54H192.94V112.71c0-18.74-15.46-34-34.46-34h-23c-19,0-34.46,15.24-34.46,34v26.63H78.69l-28.95-54a11.5,11.5,0,0,0-10.15-6H34.45A34.27,34.27,0,0,0,0,113.34v66.84A34,34,0,0,0,22.11,211.9a11.56,11.56,0,0,0,6,1.7h.12c.95.17,1.91.31,2.88.4a11.36,11.36,0,0,1,8.48,10.92v53.81a11.5,11.5,0,0,0,23,0V224.86a33.4,33.4,0,0,0-1.78-10.76H85.56V256c0,18.74,15.45,34,34.45,34h54.55c19,0,34.46-15.24,34.46-34V214.1h24.17a33.4,33.4,0,0,0-1.78,10.76v53.81a11.5,11.5,0,0,0,23,0V224.86a11.36,11.36,0,0,1,8.48-10.92c1-.09,1.93-.23,2.88-.4h.12a11.56,11.56,0,0,0,6-1.7A34.05,34.05,0,0,0,294,180.12a11.5,11.5,0,0,0-23,0A11.36,11.36,0,0,1,262.55,191c-1,.09-1.93.23-2.88.4H209V162h13.2a11.48,11.48,0,0,0,10.15-6l28.9-53.88a11.39,11.39,0,0,1,9.76,11.2v10.57A11.41,11.41,0,0,0,282.52,135.18ZM124,112.71a11.42,11.42,0,0,1,11.49-11.32h23A11.42,11.42,0,0,1,170,112.71v26.63H124ZM34.45,191.45h-.12c-.95-.17-1.91-.31-2.88-.4A11.38,11.38,0,0,1,23,180.12V113.28a11.39,11.39,0,0,1,9.76-11.2L61.63,156a11.48,11.48,0,0,0,10.15,6H85.56v29.46ZM186.05,256a11.42,11.42,0,0,1-11.49,11.32H120A11.41,11.41,0,0,1,108.53,256V162h77.52ZM259,68c19,0,34.46-15.25,34.46-34S278,0,259,0a34.27,34.27,0,0,0-34.45,34A34.26,34.26,0,0,0,259,68Zm0-45.31a11.43,11.43,0,1,1-.16,0ZM147,68c19,0,34.45-15.25,34.45-34S166,0,147,0a34.27,34.27,0,0,0-34.45,34A34.26,34.26,0,0,0,147,68Zm0-45.31a11.42,11.42,0,1,1-.13,0Z"/></g></g></g></g></svg>