<svg xmlns="http://www.w3.org/2000/svg" viewBox="0 0 512 512"><g id="Layer_2" data-name="Layer 2"><g id="Layer_1-2" data-name="Layer 1"><g id="Layer_2-2" data-name="Layer 2"><g id="Layer_1-2-2" data-name="Layer 1-2"><g id="Capa_1" data-name="Capa 1"><path d="M140,80H80V280h40V200h20a60,60,0,0,0,0-120Zm0,80H120V120h20a20,20,0,0,1,0,40Zm92-40H432V80H232Zm0,160H432V240H232Zm220,80a60.07,60.07,0,0,0,60-60V60A60.07,60.07,0,0,0,452,0H60A60.07,60.07,0,0,0,0,60V300a60.07,60.07,0,0,0,60,60H80V472H0v40H512V472H432V360ZM392,472H120V360H392ZM60,320a20,20,0,0,1-20-20V60A20,20,0,0,1,60,40H452a20,20,0,0,1,20,20V300a20,20,0,0,1-20,20ZM232,200H432V160H232Z"/></g></g></g></g></g></svg>