<svg xmlns="http://www.w3.org/2000/svg" viewBox="0 0 406.62 442.14"><g id="Layer_2" data-name="Layer 2"><g id="Capa_1" data-name="Capa 1"><path d="M355.87,184.5h-1V158.9a148.9,148.9,0,1,0-297.8,0v25.6H50.76c-23,0-40.75,20.37-40.75,43.88v65.31A41.28,41.28,0,0,0,50.23,336h39.2a9.93,9.93,0,0,0,9.44-10.38,5.65,5.65,0,0,0,0-.59V197c0-6.27-3.66-12.54-9.4-12.54H77.93V158.9a128,128,0,0,1,256,0v25.6H322.44c-5.75,0-9.41,6.27-9.41,12.54V325A9.93,9.93,0,0,0,321.85,336l.59.05h12l-1,1.56a82.56,82.56,0,0,1-66.35,32.92,51.69,51.69,0,1,0-50.16,61.65,53.81,53.81,0,0,0,37.62-16.2,46,46,0,0,0,12.54-25.08,103.43,103.43,0,0,0,83.07-41.27L360.05,335c22.47-1.57,36.57-15.67,36.57-36v-65.3C396.63,211.14,379.91,184.5,355.87,184.5ZM77.93,315.11H50.76a20.38,20.38,0,0,1-19.87-20.87c0-.18,0-.36,0-.55V228.38c0-12,8.36-23,19.85-23H77.93Zm161.44,86.2a30.82,30.82,0,0,1-22.47,9.93,31.86,31.86,0,0,1-31.34-30.82,30.83,30.83,0,1,1,61.65,0v0A27.69,27.69,0,0,1,239.37,401.31Zm136.36-102.4c0,14.11-13.59,16.2-19.86,16.2H333.93V205.4h21.94c11.5,0,19.86,16.19,19.86,28.21Z"/><path d="M217,442.14h-.08a62.44,62.44,0,0,1-62.24-61.63v-.17a61.73,61.73,0,0,1,119.88-20.2,73.1,73.1,0,0,0,39.19-16.35,20,20,0,0,1-10.7-19.2V197c0-12.64,8.53-22.54,19.41-22.54h1.49V158.9a118,118,0,0,0-236,0v15.6h1.5c10.88,0,19.4,9.9,19.4,22.54V324.59c0,.2,0,.4,0,.59a19.92,19.92,0,0,1-19,20.82H50.66L50,346A51.28,51.28,0,0,1,0,293.57V228.38c0-28.38,20.78-51.7,47-53.74V158.9C47,71.28,118.32,0,205.93,0s158.9,71.28,158.9,158.9v16.56c10.8,2.34,20.67,8.93,28.4,19.12a66,66,0,0,1,13.39,39v65.3c0,24-16.22,41.8-40.88,45.48l-7.62,11.21a114.07,114.07,0,0,1-83.09,45,55.64,55.64,0,0,1-13.36,22.32,63.43,63.43,0,0,1-44.6,19.21ZM174.66,380.4a42.38,42.38,0,0,0,42.16,41.74A43.54,43.54,0,0,0,247.37,409a35.82,35.82,0,0,0,9.81-19.62l1.31-8.5,8.61,0A93.7,93.7,0,0,0,342,343.77l12.52-18.45,4.85-.33c17.07-1.2,27.26-10.94,27.26-26.08v-65.3a46.27,46.27,0,0,0-9.32-26.94c-3.45-4.54-10.82-12.17-21.43-12.17h-11V158.9c0-76.59-62.31-138.9-138.9-138.9S67,82.31,67,158.9v35.6H50.76C33.81,194.5,20,209.7,20,228.38v65.56A31.28,31.28,0,0,0,50.48,326h38.4l0-.44V197a6.05,6.05,0,0,0-.54-2.54H67.93V158.9c0-76.1,61.91-138,138-138s138,61.9,138,138v35.6H323.58A5.88,5.88,0,0,0,323,197V325.57l0,.44h30.15L341.4,343.59a93,93,0,0,1-74,36.9H267l-8.13,0-1.62-8A41.73,41.73,0,0,0,208,339.94,41.93,41.93,0,0,0,174.66,380.4Zm42.2,40.84h-.12a41.83,41.83,0,0,1-41.18-40.5v-.32a40.86,40.86,0,0,1,40.8-40.84h0a40.87,40.87,0,0,1,40.82,40.56,37.76,37.76,0,0,1-10.58,28.06,40.94,40.94,0,0,1-29.65,13Zm-21.3-41a21.85,21.85,0,0,0,21.39,21A20.91,20.91,0,0,0,232,394.53l.19-.2a17.72,17.72,0,0,0,5-13.35v-.56a20.86,20.86,0,0,0-20.83-20.84h0A20.84,20.84,0,0,0,195.56,380.25Zm160.31-55.14H323.93V195.4h31.94c18.5,0,29.86,22.25,29.86,38.21v65.3C385.73,314.58,373.73,325.11,355.87,325.11Zm-11.94-20h11.94c9.86,0,9.86-4.66,9.86-6.2v-65.3c0-8.45-6-18.21-9.86-18.21H343.93Zm-256,20H50.52A30.42,30.42,0,0,1,20.89,294c0-.18,0-.36,0-.53V228.38c0-18.19,13.39-33,29.85-33H87.93Zm-37-20h17V215.4H50.76c-5.89,0-9.85,6.71-9.85,13l0,66.13A10.38,10.38,0,0,0,50.91,305.11Z"/></g></g></svg>