<svg xmlns="http://www.w3.org/2000/svg" viewBox="0 0 164.3 231.72"><g id="Layer_2" data-name="Layer 2"><g id="Layer_1-2" data-name="Layer 1"><g id="Layer_2-2" data-name="Layer 2"><g id="Capa_1" data-name="Capa 1"><path d="M151.37,177.17l-4.62-7.72C138.43,155.74,127,140,112,140a21.53,21.53,0,0,0-8.29,1.7l-8.08,3.46c-.73.31-1.45.66-2.21,1-2.07,1-4.41,2.15-6.83,2.15-6,0-12.84-7.74-19.4-21.8-6.45-13.8-6-21-4.56-24.68,1.63-4,5.43-5.73,9.51-7.27.56-.22,1.08-.41,1.57-.62l8.19-3.44c21.31-8.92,13.38-40.07,10.78-50.28l-2.2-8.78C88.49,24.22,83.49,5,67,5a25.3,25.3,0,0,0-9.73,2.13C55,8,24.4,20.48,13.33,42.4.1,68.49,2.54,103.48,20.6,146.4s41.15,69.21,69.06,78.07a53.46,53.46,0,0,0,16.08,2.29h0c19.26,0,38.27-8.2,39.81-8.88,6.64-2.81,10.93-7.08,12.76-12.7C161.4,195.61,156.21,185.17,151.37,177.17ZM144,200.51c-.42,1.3-1.9,2.5-4.38,3.54l-.13.06c-.17.07-17.38,7.61-33.79,7.61a38.32,38.32,0,0,1-11.55-1.59c-23.51-7.46-43.61-30.86-59.76-69.56s-18.87-69.4-7.72-91.39c8.66-17.15,35.78-28,36-28.12L63,21a11.12,11.12,0,0,1,4-1c3.3,0,6.31,5.13,8.92,15.17l2.2,8.75c4.73,18.6,4,30.23-2,32.77l-8.22,3.43-1.12.43c-4.5,1.7-13.86,5.25-18.1,15.66-3.84,9.45-2.25,21.44,4.86,36.67,9.57,20.49,20.37,30.45,33,30.45,5.87,0,10.57-2.29,13.39-3.65q.77-.39,1.47-.69l8.1-3.47A6.33,6.33,0,0,1,112,155c3.89,0,10.88,3.86,22,22.19l4.62,7.72C144.21,194.31,144.66,198.58,144,200.51Z"/><path d="M105.74,231.72a58,58,0,0,1-17.6-2.53c-29.37-9.32-53.65-36.54-72.16-80.9S-5,67.6,8.87,40.14c11.8-23.36,43-36.27,46.47-37.66A30.16,30.16,0,0,1,67,0c20.4,0,26.32,22.72,28.26,30.19L97.43,39C100.3,50.25,109,84.53,83.72,95.11l-8.17,3.46c-.57.24-1.13.45-1.74.68-3.78,1.44-5.85,2.52-6.65,4.49-.72,1.79-1.75,7.39,4.46,20.67,7,14.94,12.63,18.92,14.87,18.92,1.27,0,3.06-.87,4.64-1.64.82-.4,1.63-.79,2.49-1.15l8-3.44A26.61,26.61,0,0,1,112,135c17.55,0,30.13,17,39.12,31.86l4.63,7.73c5.41,8.93,11.13,20.64,7.41,32.09-2.29,7.06-7.52,12.36-15.56,15.77C145.41,223.37,126,231.72,105.74,231.72ZM67,10a20.46,20.46,0,0,0-7.81,1.74c-1.34.53-31,12.5-41.32,32.92C5.25,69.38,7.74,103,25.2,144.42s39.53,66.85,66,75.24a48,48,0,0,0,14.57,2.06c18.43,0,37-8.11,37.8-8.45,5.38-2.28,8.64-5.44,10-9.68,2.47-7.59-2.15-16.72-6.46-23.83h0L142.46,172c-7.63-12.57-18-27-30.56-27a16.43,16.43,0,0,0-6.37,1.31l-8,3.45c-.64.27-1.25.56-2,.91-2.33,1.13-5.48,2.66-9,2.66-8.23,0-16.29-8.31-23.93-24.69-5.79-12.39-7.36-22-4.66-28.67,2.59-6.37,8.71-8.68,12.37-10.07.51-.19,1-.37,1.44-.56l8.15-3.43c17.34-7.25,10.22-35.24,7.88-44.43l-2.21-8.8C82.78,22.14,78.18,10,67,10Zm38.82,206.72h0a43.44,43.44,0,0,1-13.06-1.82c-25-7.93-46.13-32.29-62.87-72.41S10.41,70.27,22.25,46.92C31.84,28,60.64,16.51,61,16.4A15.59,15.59,0,0,1,67,15c7.84,0,11.47,10.11,13.76,18.91l2.21,8.79c5.57,21.9,3.9,34.89-5,38.6l-8.13,3.43-1.08.42-.21.08c-4.14,1.56-11.82,4.47-15.23,12.86C50,106.18,51.53,116.86,58,130.76c8.67,18.55,18,27.57,28.47,27.57,4.71,0,8.62-1.89,11.2-3.15l.18-.09c.54-.26,1-.5,1.57-.72l8-3.45A11.48,11.48,0,0,1,112,150c7.64,0,16.23,8.05,26.27,24.6l4.64,7.74c5.5,9.07,7.4,15.34,6,19.71h0c-.91,2.78-3.25,4.94-7.16,6.59h0c-.87.36-18.7,8.08-35.91,8.08ZM66.43,25.07a10.11,10.11,0,0,0-1.58.53l-.28.11c-7.09,2.83-27,13-33.4,25.72-10.45,20.62-7.81,49.95,7.87,87.2s34.62,59.74,56.67,66.74a33.52,33.52,0,0,0,10,1.35h0c14.8,0,30.82-6.78,31.74-7.18l.24-.1a8.38,8.38,0,0,0,1.52-.78c-.1-1.07-.8-4.22-5-11.16l-4.63-7.74C117.76,160.23,112.13,160,112,160a1.42,1.42,0,0,0-.53.13l-8,3.45c-.41.17-.73.33-1.08.5l-.19.09c-3,1.46-8.55,4.16-15.57,4.16-14.77,0-27-10.9-37.53-33.34-7.73-16.56-9.35-29.86-5-40.66,5.06-12.43,16.2-16.65,21-18.45l.22-.09L66,75.5l8.11-3.42c1.41-.59,4.27-6.8-.86-26.93L71,36.39C69,28.35,67.1,25.79,66.43,25.07Z"/></g></g></g></g></svg>