<svg xmlns="http://www.w3.org/2000/svg" viewBox="0 0 517 514.15"><g id="Layer_2" data-name="Layer 2"><g id="Layer_1-2" data-name="Layer 1"><path d="M457.6,372.82a99.42,99.42,0,0,0-94.8-171.37,156.67,156.67,0,0,0-38.18-25.13,99.45,99.45,0,1,0-132-.12,157.29,157.29,0,0,0-38.4,25.22A99.94,99.94,0,0,0,58.57,373.34,119.34,119.34,0,0,0,2.5,474.48v17.29a19.88,19.88,0,0,0,19.89,19.88H494.61a19.88,19.88,0,0,0,19.89-19.88V474.48A119.38,119.38,0,0,0,457.6,372.82Zm-2.77-77.34a59.67,59.67,0,1,1-59.66-59.67A59.72,59.72,0,0,1,454.83,295.48ZM258.69,42.28A59.67,59.67,0,1,1,199,102,59.73,59.73,0,0,1,258.69,42.28Zm68.08,181.08a99.3,99.3,0,0,0,6,149.46,119.38,119.38,0,0,0-56.86,99.06H241.13a119.37,119.37,0,0,0-56-98.54,99.83,99.83,0,0,0,5.26-150.06A116.93,116.93,0,0,1,326.77,223.36ZM61.65,296a60.19,60.19,0,1,1,69.29,59.49q-4.51-.35-9.11-.35c-3.06,0-6.1.12-9.1.35A60.27,60.27,0,0,1,61.65,296ZM42.32,471.88a79.68,79.68,0,0,1,70.06-76.38c3.11.3,6.26.46,9.45.46s6.35-.16,9.46-.46a79.69,79.69,0,0,1,70.06,76.38Zm273.33,0a79.56,79.56,0,0,1,159,0Z"/><path d="M494.61,514.15H22.39A22.41,22.41,0,0,1,0,491.77V474.48A121.27,121.27,0,0,1,54.39,373.07a102.45,102.45,0,0,1,99.26-174.48,159.19,159.19,0,0,1,34.57-23.05,101.94,101.94,0,1,1,140.81.12,159.43,159.43,0,0,1,34.35,23,101.91,101.91,0,0,1,98.44,173.93A121.14,121.14,0,0,1,517,474.48v17.29A22.41,22.41,0,0,1,494.61,514.15ZM121.83,198.54A97.41,97.41,0,0,0,60.16,371.4l2.69,2.21-3,1.84a116.35,116.35,0,0,0-54.9,99v17.29a17.41,17.41,0,0,0,17.39,17.38H494.61A17.41,17.41,0,0,0,512,491.77V474.48A116.24,116.24,0,0,0,456.29,375l-3-1.85,2.75-2.22a96.92,96.92,0,0,0-92.41-167.07l-1.39.48-1.09-1a154.62,154.62,0,0,0-37.57-24.73L320.11,177l2.85-2.52a96.94,96.94,0,1,0-128.68-.11l2.85,2.53-3.46,1.6a154.66,154.66,0,0,0-37.79,24.82l-1.09,1-1.38-.47A96.91,96.91,0,0,0,121.83,198.54ZM477.26,474.38H313.07l.08-2.59a82.06,82.06,0,0,1,164,0Zm-159-5H472.06a77.06,77.06,0,0,0-153.78,0Zm-40,5H238.69l-.06-2.45a116.65,116.65,0,0,0-54.87-96.48l-2.94-1.84,2.69-2.21a97.33,97.33,0,0,0,5.13-146.3l-2.2-2.07,2.45-1.77a118,118,0,0,1,69.61-22.4h.07a118,118,0,0,1,69.66,22.48l2.44,1.77-2.18,2.07a96.79,96.79,0,0,0,5.82,145.7l2.74,2.22-3,1.85a116.5,116.5,0,0,0-55.68,97Zm-34.75-5h29.88a121.48,121.48,0,0,1,55.07-96.84,101.77,101.77,0,0,1-5.64-148.86c-38.27-26.2-90.31-26.24-128.61-.09a102.33,102.33,0,0,1-5,149.48A121.6,121.6,0,0,1,243.56,469.38Zm-39.63,5H39.74l.08-2.59A82.17,82.17,0,0,1,112.08,393l.26,0,.27,0c3.12.3,6.22.45,9.22.45s6.11-.15,9.23-.45l.26,0,.27,0a82.17,82.17,0,0,1,72.26,78.77Zm-159-5H198.72c-2.42-36.48-31-66.89-67.46-71.36a102.32,102.32,0,0,1-18.85,0C75.93,402.49,47.37,432.89,45,469.38ZM112.64,358l-.29,0a62.69,62.69,0,1,1,19,0l-.28,0-.28,0a117.91,117.91,0,0,0-17.83,0Zm9.19-119.69a57.68,57.68,0,0,0-9,114.66,125.88,125.88,0,0,1,18,0,57.68,57.68,0,0,0-9-114.66ZM395.17,357.64a62.17,62.17,0,1,1,62.16-62.16A62.23,62.23,0,0,1,395.17,357.64Zm0-119.33a57.17,57.17,0,1,0,57.16,57.17A57.24,57.24,0,0,0,395.17,238.31Zm-136.48-74.2A62.17,62.17,0,1,1,320.86,102,62.24,62.24,0,0,1,258.69,164.11Zm0-119.33A57.17,57.17,0,1,0,315.86,102,57.23,57.23,0,0,0,258.69,44.78Z"/></g></g></svg>